# AST/ASF file generated using VICON BodyLanguage
# -----------------------------------------------
:version 1.10
:name VICON
:units
  mass 1.0
  length 0.45
  angle deg
:documentation
   .ast/.asf automatically generated from VICON data using
   VICON BodyBuilder and BodyLanguage model FoxedUp or BRILLIANT.MOD
:root
   order TX TY TZ RX RY RZ
   axis XYZ
   position 0 0 0  
   orientation 0 0 0 
:bonedata
  begin
     id 1 
     name lhipjoint
     direction 0.64773 -0.699417 0.302095 
     length 2.48597 
     axis 0 0 0  XYZ
  end
  begin
     id 2 
     name lfemur
     direction 0.34202 -0.939693 0  
     length 6.71947  
     axis 0 0 20  XYZ
    dof rx ry rz
    limits (-160.0 20.0)
           (-70.0 70.0)
           (-60.0 70.0)
  end
  begin
     id 3 
     name ltibia
     direction 0.34202 -0.939693 0   
     length 8.08777   
     axis 0 0 20   XYZ
    dof rx
    limits (-10.0 170.0)
  end
  begin
     id 4 
     name lfoot
     direction 0.0808503 -0.222134 0.971658   
     length 2.08264   
     axis -90 7.62852e-016 20   XYZ
    dof rx rz
    limits (-45.0 90.0)
           (-70.0 20.0)
  end
  begin
     id 5 
     name ltoes
     direction 1.53502e-011 -4.22007e-011 1   
     length 1.04662   
     axis -90 7.62852e-016 20   XYZ
    dof rx
    limits (-90.0 20.0)
  end
  begin
     id 6 
     name rhipjoint
     direction -0.610924 -0.726792 0.313919   
     length 2.39233  
     axis 0 0 0  XYZ 
  end
  begin
     id 7 
     name rfemur
     direction -0.34202 -0.939693 0   
     length 6.96955   
     axis 0 0 -20   XYZ
    dof rx ry rz
    limits (-160.0 20.0)
           (-70.0 70.0)
           (-70.0 60.0)
  end
  begin
     id 8 
     name rtibia
     direction -0.34202 -0.939693 0   
     length 8.19584   
     axis 0 0 -20   XYZ
    dof rx
    limits (-10.0 170.0)
 end
 begin
     id 9 
     name rfoot
     direction -0.077777 -0.213691 0.9738   
     length 2.07539  
     axis -90 -7.62852e-016 -20   XYZ
    dof rx rz
    limits (-45.0 90.0)
           (-20.0 70.0)
  end
  begin
     id 10 
     name rtoes
     direction -1.53558e-011 -4.22006e-011 1   
     length 1.04381   
     axis -90 -7.62852e-016 -20   XYZ
    dof rx
    limits (-90.0 20.0)
  end
  begin
     id 11 
     name lowerback
     direction -0.00971646 0.996074 0.0879841   
     length 1.67643   
     axis 0 0 0   XYZ
    dof rx ry rz
    limits (-20.0 45.0)
           (-30.0 30.0)
           (-30.0 30.0)
  end
  begin
     id 12 
     name upperback
     direction 0.0127391 0.991676 0.128127   
     length 1.63741   
     axis 0 0 0   XYZ
    dof rx ry rz
    limits (-20.0 45.0)
           (-30.0 30.0)
           (-30.0 30.0)
  end
  begin
     id 13 
     name thorax
     direction 0.0167583 0.996049 0.0872067   
     length 1.65931   
     axis 0 0 0   XYZ
    dof rx ry rz
    limits (-20.0 45.0)
           (-30.0 30.0)
           (-30.0 30.0)
  end
  begin
     id 14 
     name lowerneck
     direction -0.0317829 0.998312 0.0486079   
     length 1.79021   
     axis 0 0 0   XYZ
    dof rx ry rz
    limits (-20.0 45.0)
           (-30.0 30.0)
           (-30.0 30.0)
  end
  begin
     id 15 
     name upperneck
     direction 0.0896851 0.972452 -0.215159   
     length 1.78797   
     axis 0 0 0   XYZ
    dof rx ry rz
    limits (-20.0 45.0)
           (-30.0 30.0)
           (-30.0 30.0)
  end
  begin
     id 16
     name head
     direction 0.0310949 0.996503 -0.0775582  
     length 1.81549  
     axis 0 0 0   XYZ
    dof rx ry rz
    limits (-20.0 45.0)
           (-30.0 30.0)
           (-30.0 30.0)
  end
  begin
     id 17 
     name lclavicle
     direction 0.853638 0.502051 -0.138733  
     length 3.31627  
     axis 0 0 0   XYZ
    dof ry rz
    limits (-20.0 10.0)
           (0.0 20.0)
  end
  begin
     id 18 
     name lhumerus
     direction 1 -4.48962e-011 -1.41788e-018   
     length 5.54893   
     axis 180 -30 -90   XYZ
    dof rx ry rz
    limits (-60.0 90.0)
           (-90.0 90.0)
           (-90.0 90.0)
  end
  begin
     id 19
     name lradius
     direction 1 -4.48962e-011 -4.95754e-027   
     length 3.02898   
     axis 180 -30 -90   XYZ
    dof rx
    limits (-10.0 170.0)
  end
  begin
     id 20
     name lwrist
     direction 1 -4.48952e-011 -1.03764e-026   
     length 1.51449   
     axis 9.09556e-015 90 90   XYZ
    dof ry
    limits (-180.0 0.0)
 end
  begin
     id 21 
     name lhand
     direction 1 -4.4902e-011 -2.07528e-026   
     length 0.640951   
     axis 1.3242e-014 90 90   XYZ
    dof rx rz
    limits (-90.0 90.0)
           (-45.0 45.0)
  end
  begin
     id 22 
     name lfingers
     direction 1 -4.49014e-011 -4.15056e-026   
     length 0.516751   
     axis 2.64841e-014 90 90   XYZ
    dof rx
    limits (0.0 90.0)
  end
  begin
     id 23
     name lthumb
     direction 0.707107 -6.35008e-011 0.707107   
     length 0.741954   
     axis -90 45 2.85299e-015   XYZ
    dof rx rz
    limits (-45.0 45.0)
           (-45.0 45.0)
  end
  begin
     id 24 
     name rclavicle
     direction -0.888531 0.455324 -0.0565039   
     length 3.20126  
     axis 0 0 0   XYZ 
    dof ry rz
    limits (-10.0 20.0)
           (-20.0 0.0)
  end
  begin
     id 25 
     name rhumerus
     direction -1 -4.48946e-011 -8.98298e-028  
     length 5.3519   
     axis 180 30 90   XYZ
    dof rx ry rz
    limits (-90.0 60.0)
           (-90.0 90.0)
           (-90.0 90.0)
  end
  begin
     id 26 
     name rradius
     direction -1 -4.4899e-011 -3.18779e-027   
     length 3.02531   
     axis 180 30 90   XYZ
    dof rx
    limits (-10.0 170.0)
  end
  begin
     id 27 
     name rwrist
     direction -1 -4.4897e-011 -1.03764e-026   
     length 1.51266   
     axis 9.09556e-015 -90 -90   XYZ
    dof ry
    limits (-180.0 0.0)
  end
  begin
     id 28
     name rhand
     direction -1 -4.48941e-011 -2.07528e-026   
     length 0.78389   
     axis 1.3242e-014 -90 -90   XYZ
    dof rx rz
    limits (-90.0 90.0)
           (-45.0 45.0)
  end
  begin
     id 29
     name rfingers
     direction -1 -4.49012e-011 -4.15056e-026   
     length 0.631992   
     axis 2.64841e-014 -90 -90   XYZ
    dof rx
    limits (0.0 90.0)
  end
  begin
     id 30
     name rthumb
     direction -0.707107 -6.3496e-011 0.707107   
     length 0.907418   
     axis -90 -45 -2.85299e-015   XYZ
    dof rx rz
    limits (-45.0 45.0)
           (-45.0 45.0)
  end
:hierarchy
  begin
    root lhipjoint rhipjoint lowerback
    lhipjoint lfemur
    lfemur ltibia
    ltibia lfoot
    lfoot ltoes
    rhipjoint rfemur
    rfemur rtibia
    rtibia rfoot
    rfoot rtoes
    lowerback upperback
    upperback thorax
    thorax lowerneck lclavicle rclavicle
    lowerneck upperneck
    upperneck head
    lclavicle lhumerus
    lhumerus lradius
    lradius lwrist
    lwrist lhand lthumb
    lhand lfingers
    rclavicle rhumerus
    rhumerus rradius
    rradius rwrist
    rwrist rhand rthumb
    rhand rfingers
  end

#!OML:ASF E:\Style3\Style3.ASF
:FULLY-SPECIFIED
:DEGREES
1071
root -2.03287 17.6057 0.0817754 -48.4459 91.3939 -70.378
lowerback 12.7316 -0.699372 -2.60544
upperback -3.73956 -1.2485 1.25768
thorax -11.1638 -0.357874 3.11859
lowerneck -4.56235 -0.615161 -6.2996
upperneck -16.1548 1.35247 12.0541
head -4.10773 0.751905 4.76588
rclavicle 1.21259e-014 4.59193e-014
rhumerus -9.88726 48.2381 -73.0667
rradius 130.258
rwrist -0.883782
rhand 2.54269 20.6175
rfingers 7.12502
rthumb 28.0235 -7.31004
lclavicle 1.21259e-014 4.59193e-014
lhumerus -15.899 -37.6646 75.6455
lradius 136.517
lwrist 15.6059
lhand 22.5687 34.586
lfingers 7.12502
lthumb 46.92 57.2874
rfemur -39.9341 8.08018 10.0007
rtibia 30.9392
rfoot -11.379 -17.4278
rtoes -11.7292
lfemur -35.9138 -6.40986 -16.3306
ltibia 23.5081
lfoot -8.249 14.2915
ltoes -17.8349
1072
root -1.92948 17.6755 0.0921519 -42.91 91.4688 -64.3931
lowerback 11.5193 -0.683572 -2.77139
upperback -4.21904 -1.20393 1.42819
thorax -10.9772 -0.314127 3.36467
lowerneck -4.93084 -0.666655 -6.32366
upperneck -14.9789 1.12549 11.9304
head -3.67253 0.656483 4.71692
rclavicle -1.18277e-014 7.7526e-015
rhumerus -10.1137 48.7044 -72.8803
rradius 130.247
rwrist -1.34347
rhand 2.57306 20.4315
rfingers 7.12502
rthumb 28.0525 -7.49127
lclavicle -1.18277e-014 7.7526e-015
lhumerus -16.2767 -37.9882 75.6699
lradius 136.547
lwrist 16.0428
lhand 22.4229 35.0055
lfingers 7.12502
lthumb 46.7851 57.7658
rfemur -37.8462 8.93718 9.90075
rtibia 28.9088
rfoot -11.0233 -18.3402
rtoes -11.3271
lfemur -33.3924 -7.72301 -15.9248
ltibia 20.6976
lfoot -7.90346 15.5466
ltoes -17.5984
1073
root -1.82406 17.7411 0.102341 -38.6287 91.5037 -59.4489
lowerback 10.405 -0.66597 -2.85841
upperback -4.54593 -1.14916 1.53176
thorax -10.6791 -0.277707 3.49069
lowerneck -5.30119 -0.687497 -6.22146
upperneck -13.8515 0.954621 11.8143
head -3.25997 0.583606 4.64962
rclavicle 1.88845e-015 -3.18055e-015
rhumerus -10.3197 48.9722 -72.8041
rradius 130.226
rwrist -1.87155
rhand 2.8593 20.3847
rfingers 7.12502
rthumb 28.3261 -7.49295
lclavicle 1.88845e-015 -3.18055e-015
lhumerus -16.4106 -38.3922 75.4614
lradius 136.569
lwrist 16.3323
lhand 23.5692 34.8798
lfingers 7.12502
lthumb 47.8444 57.1649
rfemur -35.5458 9.74632 9.95782
rtibia 26.9331
rfoot -10.7127 -19.0846
rtoes -11.0953
lfemur -30.5993 -9.03686 -15.5504
ltibia 17.8415
lfoot -7.62236 16.8317
ltoes -17.2055
1074
root -1.71553 17.7968 0.106984 -34.0207 91.5491 -53.9894
lowerback 9.36625 -0.663479 -2.81844
upperback -4.76183 -1.10183 1.58697
thorax -10.3029 -0.259006 3.49431
lowerneck -5.58941 -0.700082 -5.99198
upperneck -12.7663 0.789696 11.6375
head -2.87702 0.507347 4.54323
rclavicle 1.40143e-014 1.59028e-015
rhumerus -10.2699 49.1982 -72.5596
rradius 130.305
rwrist -2.62607
rhand 3.34256 20.0327
rfingers 7.12502
rthumb 28.7878 -7.76738
lclavicle 1.40143e-014 1.59028e-015
lhumerus -16.3987 -38.8725 75.1345
lradius 136.549
lwrist 16.5445
lhand 24.1636 34.6926
lfingers 7.12502
lthumb 48.3922 56.7203
rfemur -33.0804 10.4673 10.1231
rtibia 25.0646
rfoot -10.4641 -19.7322
rtoes -10.6062
lfemur -27.5967 -10.5699 -15.1939
ltibia 14.9766
lfoot -7.37482 18.2897
ltoes -16.7006
1075
root -1.61558 17.8401 0.110878 -25.595 91.6304 -44.8648
lowerback 7.30295 -0.711608 -2.63193
upperback -4.4573 -1.08762 1.62139
thorax -8.74735 -0.30311 3.36099
lowerneck -5.9544 -0.718919 -5.74394
upperneck -12.1256 0.68561 11.4989
head -2.6199 0.46467 4.45158
rclavicle 1.98785e-016 -2.14687e-014
rhumerus -8.76632 49.1609 -71.282
rradius 130.355
rwrist -3.52721
rhand 3.75581 19.3203
rfingers 7.12502
rthumb 29.1825 -8.41195
lclavicle 1.98785e-016 -2.14687e-014
lhumerus -15.3111 -39.1446 74.0497
lradius 136.432
lwrist 16.7312
lhand 24.4771 34.5488
lfingers 7.12502
lthumb 48.6807 56.4376
rfemur -30.9101 11.0172 10.3913
rtibia 23.3665
rfoot -10.2088 -20.3425
rtoes -10.1904
lfemur -24.8232 -12.2625 -14.7319
ltibia 12.0917
lfoot -7.20871 19.914
ltoes -16.1117
1076
root -1.52576 17.8722 0.11611 -16.0513 91.7455 -34.7445
lowerback 6.30099 -0.739638 -2.43665
upperback -4.81192 -1.0627 1.72403
thorax -8.54639 -0.293503 3.33779
lowerneck -6.21954 -0.710553 -5.55884
upperneck -10.8865 0.530484 11.2897
head -2.19995 0.396815 4.34376
rclavicle -1.54058e-014 2.62396e-014
rhumerus -8.74998 49.428 -70.9767
rradius 130.489
rwrist -4.13138
rhand 4.28825 18.8235
rfingers 7.12502
rthumb 29.6909 -8.81931
lclavicle -1.54058e-014 2.62396e-014
lhumerus -15.6213 -39.7319 73.9806
lradius 136.425
lwrist 16.6579
lhand 24.4264 34.4001
lfingers 7.12502
lthumb 48.634 56.3116
rfemur -29.0328 11.4065 10.7502
rtibia 21.8909
rfoot -9.89954 -20.8592
rtoes -10.9344
lfemur -22.0516 -12.6138 -14.8197
ltibia 9.12697
lfoot -6.47063 20.196
ltoes -16.8804
1077
root -1.44617 17.8916 0.120924 -7.61407 91.9447 -25.7443
lowerback 5.29564 -0.810638 -2.24971
upperback -5.07114 -1.09861 1.85416
thorax -8.23442 -0.31567 3.35433
lowerneck -6.51278 -0.671108 -5.38303
upperneck -9.74555 0.433305 11.0402
head -1.8112 0.360254 4.22791
rclavicle 1.92821e-014 -4.69132e-014
rhumerus -8.35387 49.6672 -70.4289
rradius 130.582
rwrist -4.61067
rhand 5.08148 18.7488
rfingers 7.12502
rthumb 30.4477 -8.75647
lclavicle 1.92821e-014 -4.69132e-014
lhumerus -15.7677 -40.1266 73.8341
lradius 136.345
lwrist 16.5949
lhand 24.3396 34.319
lfingers 7.12502
lthumb 48.5542 56.2691
rfemur -27.318 11.6438 11.1448
rtibia 20.6318
rfoot -9.71902 -21.27
rtoes -11.6759
lfemur -19.2408 -12.965 -14.8315
ltibia 5.92446
lfoot -5.03788 20.399
ltoes -18.7549
